<?xml version="1.0" standalone="no"?>
<!DOCTYPE svg PUBLIC "-//W3C//DTD SVG 20010904//EN"
 "http://www.w3.org/TR/2001/REC-SVG-20010904/DTD/svg10.dtd">
<svg version="1.0" xmlns="http://www.w3.org/2000/svg"
 width="2526.000000pt" height="1286.000000pt" viewBox="0 380 2026.000000 990.000000"
 preserveAspectRatio="xMidYMid meet">

<g transform="translate(0.000000,1786.000000) scale(0.100000,-0.100000)"
fill="#000000" stroke="none">
<path d="M12738 13448 c-47 -79 -145 -244 -218 -368 -73 -124 -145 -245 -160
-270 -15 -25 -74 -124 -130 -220 -57 -96 -138 -233 -180 -305 -43 -71 -147
-247 -232 -391 l-155 -261 52 -89 c29 -49 88 -150 132 -224 308 -520 419 -708
518 -875 62 -104 153 -257 202 -340 l89 -150 1162 -3 c639 -1 1162 0 1162 3 0
4 -50 90 -242 413 -44 75 -97 164 -116 197 -19 33 -61 103 -92 155 -31 52 -79
133 -107 180 -81 137 -292 494 -568 960 -411 694 -573 966 -655 1105 -292 493
-362 611 -369 618 -4 4 -46 -56 -93 -135z"/>
<path d="M11073 12578 c-6 -7 -106 -175 -223 -373 -117 -198 -277 -468 -355
-600 -143 -242 -291 -492 -535 -905 -73 -124 -145 -245 -160 -270 -15 -25 -87
-145 -159 -267 l-132 -223 -543 0 -543 0 -7 32 c-14 70 -91 160 -172 201 -45
23 -136 35 -194 26 -110 -17 -206 -95 -250 -202 l-24 -57 -174 2 -175 3 -20
54 c-24 62 -94 139 -154 170 -52 26 -133 38 -200 30 -123 -16 -225 -108 -267
-241 -5 -17 -33 -18 -411 -18 l-405 0 0 -75 0 -75 408 0 407 0 23 -51 c31 -66
90 -125 161 -158 81 -38 193 -37 272 1 70 35 122 87 155 155 l26 53 183 0 182
0 17 -45 c23 -60 94 -130 164 -163 47 -22 71 -27 137 -27 67 0 89 4 136 28 66
32 132 100 160 163 l20 44 494 0 c294 0 495 -4 495 -9 0 -5 -20 -42 -43 -83
-24 -40 -124 -208 -222 -373 -98 -165 -236 -399 -308 -520 -71 -121 -166 -281
-210 -355 -44 -74 -82 -138 -84 -143 -2 -4 253 -6 568 -5 l572 3 38 60 c21 33
38 63 38 68 1 4 -215 7 -479 7 -293 0 -480 4 -480 9 0 6 33 65 73 133 41 68
120 202 177 298 57 96 129 218 160 270 31 52 103 174 160 270 56 96 115 195
130 220 15 25 87 146 160 270 73 124 145 245 160 270 15 25 74 124 130 220 57
96 129 218 160 270 31 52 79 133 107 180 215 365 319 541 343 580 15 25 87
146 160 270 73 124 152 257 174 295 23 39 73 123 111 187 39 65 73 118 77 118
3 0 38 -53 76 -117 129 -218 218 -367 311 -525 51 -87 96 -158 100 -158 7 0
81 122 81 134 0 3 -11 23 -24 44 -13 20 -83 138 -156 262 -73 124 -145 245
-160 270 -15 25 -67 113 -115 195 -114 195 -110 188 -122 173z m-3884 -2575
c40 -30 73 -101 66 -143 -15 -82 -71 -130 -152 -130 -61 0 -106 27 -133 79
-25 51 -25 84 1 137 37 78 149 107 218 57z m999 0 c64 -48 84 -140 44 -204
-61 -98 -209 -92 -263 11 -38 70 -11 157 60 199 44 27 119 24 159 -6z"/>
<path d="M11542 11428 c-40 -68 -695 -1174 -1070 -1808 -63 -107 -150 -253
-192 -325 -43 -71 -137 -231 -210 -355 -73 -124 -168 -283 -211 -355 l-77
-130 1781 -3 c979 -1 1783 0 1786 3 3 3 -1 16 -9 28 -13 22 -37 62 -327 552
-88 149 -283 477 -433 730 -150 253 -311 525 -358 605 -96 163 -218 369 -302
510 -31 52 -121 204 -199 338 -79 133 -147 242 -151 242 -5 0 -17 -15 -28 -32z"/>
<path d="M16705 10221 c-127 -33 -228 -134 -252 -252 l-5 -29 -719 0 c-396 0
-719 -3 -719 -7 0 -5 16 -34 35 -66 19 -32 35 -62 35 -68 0 -5 262 -9 694 -9
l694 0 10 -30 c16 -45 98 -127 156 -154 130 -63 283 -33 381 75 20 22 43 55
52 74 l17 35 1100 2 1101 3 0 70 0 70 -1092 3 -1092 2 -12 43 c-25 95 -89 171
-178 211 -63 28 -156 40 -206 27z m40 -86 c-67 -49 -85 -90 -65 -150 14 -41
49 -69 109 -85 26 -7 59 -26 78 -45 29 -29 33 -39 33 -85 0 -45 -4 -56 -30
-80 -50 -46 -127 -53 -206 -16 -84 39 -144 134 -144 226 0 52 26 120 62 164
34 41 117 86 158 86 24 -1 25 -1 5 -15z m59 -97 c14 -23 -3 -52 -33 -56 -42
-6 -67 38 -39 66 17 17 58 11 72 -10z"/>
<path d="M16761 9756 c-16 -19 2 -56 28 -56 28 0 47 28 34 48 -13 22 -47 27
-62 8z"/>
<path d="M12760 9784 c0 -4 22 -43 48 -88 27 -45 109 -182 182 -306 73 -124
145 -245 160 -270 15 -25 81 -135 145 -245 65 -110 167 -282 227 -383 59 -101
108 -187 108 -192 0 -6 -721 -10 -1973 -10 l-1972 0 -70 -117 c-38 -65 -101
-172 -141 -238 -39 -66 -131 -221 -204 -345 -73 -124 -145 -245 -160 -270 -71
-116 -230 -388 -230 -394 0 -3 1776 -6 3946 -6 3717 0 3946 1 3940 17 -6 15
-328 564 -406 693 -15 25 -87 146 -160 270 -73 124 -168 284 -210 355 -43 72
-137 231 -210 355 -73 124 -145 245 -160 270 -15 25 -99 167 -187 315 -88 149
-203 342 -255 430 l-95 160 -1161 3 c-639 1 -1162 -1 -1162 -4z"/>
<path d="M10160 6556 c-217 -43 -389 -194 -457 -400 -54 -169 -29 -367 67
-513 113 -172 296 -269 505 -267 201 2 374 92 485 255 264 385 8 904 -459 934
-43 2 -104 -1 -141 -9z m220 -238 c19 -6 56 -24 82 -40 205 -126 230 -414 51
-578 -100 -92 -247 -118 -378 -69 -83 31 -173 121 -204 204 -49 131 -22 278
69 378 97 106 243 146 380 105z"/>
<path d="M8535 6538 c-3 -7 -4 -267 -3 -578 l3 -565 110 0 110 0 5 334 5 334
324 -336 c277 -289 328 -337 352 -337 l29 0 0 580 0 580 -115 0 -115 0 0 -320
c0 -176 -4 -320 -8 -320 -5 0 -149 144 -321 320 -270 277 -317 320 -342 320
-16 0 -32 -6 -34 -12z"/>
<path d="M10880 6535 c0 -8 86 -205 191 -437 348 -771 315 -703 347 -706 16
-2 34 3 40 10 6 8 35 70 65 138 46 103 117 261 322 715 85 187 125 279 125
287 0 5 -55 7 -122 6 l-122 -3 -146 -319 c-80 -176 -150 -321 -156 -323 -5 -2
-76 143 -158 322 l-149 325 -118 0 c-98 0 -119 -3 -119 -15z"/>
<path d="M12324 6393 c-192 -374 -504 -991 -504 -997 0 -3 55 -6 123 -6 l123
0 124 243 c155 305 231 451 236 456 4 4 56 -102 223 -459 l110 -235 122 -3
121 -3 -6 24 c-3 13 -54 127 -114 253 -60 126 -118 249 -130 274 -35 77 -251
533 -269 570 -14 27 -25 36 -48 38 -29 3 -32 -1 -111 -155z"/>
<path d="M13684 6537 c-2 -7 -3 -58 -2 -113 l3 -99 380 0 380 0 0 110 0 110
-378 3 c-307 2 -378 0 -383 -11z"/>
<path d="M14645 6538 c-3 -7 -4 -267 -3 -578 l3 -565 110 0 110 0 3 463 2 462
126 0 c140 0 173 -10 199 -60 48 -94 -16 -180 -134 -180 l-51 0 0 -115 0 -115
71 -152 c39 -84 87 -188 107 -230 l35 -78 119 0 c65 0 118 2 118 5 0 3 -48
108 -106 233 -59 125 -107 234 -108 243 0 10 20 31 48 50 232 158 172 525
-100 609 -59 18 -93 20 -305 20 -183 0 -241 -3 -244 -12z"/>
<path d="M16064 6372 c-198 -385 -494 -970 -494 -976 0 -3 56 -6 124 -6 l124
0 118 233 c217 430 238 467 250 454 6 -7 32 -57 57 -112 37 -81 131 -283 254
-542 l15 -33 124 0 c68 0 124 2 124 4 0 2 -29 64 -64 137 -35 74 -100 211
-144 304 -44 94 -110 233 -146 310 -37 77 -94 200 -129 272 -59 127 -63 133
-92 133 -29 0 -34 -7 -121 -178z"/>
<path d="M13684 6087 c-2 -7 -3 -58 -2 -113 l3 -99 315 0 315 0 0 110 0 110
-313 3 c-253 2 -313 0 -318 -11z"/>
<path d="M13684 5607 c-2 -7 -3 -58 -2 -113 l3 -99 378 -3 378 -2 -3 112 -3
113 -373 3 c-303 2 -373 0 -378 -11z"/>
<path d="M10517 4903 c-4 -3 -7 -96 -7 -205 l0 -198 40 0 40 0 0 85 0 85 81 0
80 0 -3 38 -3 37 -77 3 -78 3 0 39 0 40 95 0 95 0 0 40 0 40 -128 0 c-71 0
-132 -3 -135 -7z"/>
<path d="M10852 4704 l3 -209 35 0 35 0 3 83 c3 78 4 82 26 82 20 0 30 -14 64
-85 40 -83 42 -85 77 -85 33 0 36 2 29 23 -3 12 -17 42 -29 67 -38 77 -39 85
-6 117 38 39 48 90 26 136 -27 57 -57 71 -168 75 l-97 4 2 -208z m187 112 c7
-8 11 -27 9 -43 -3 -27 -6 -28 -60 -31 l-58 -3 0 46 0 45 49 0 c30 0 53 -5 60
-14z"/>
<path d="M11590 4870 l0 -40 60 0 60 0 0 -166 0 -165 38 3 37 3 3 163 2 162
56 0 55 0 -3 38 -3 37 -152 3 -153 3 0 -41z"/>
<path d="M11962 4703 l3 -208 130 0 130 0 3 38 3 37 -95 0 -96 0 0 50 0 49 78
3 77 3 0 35 0 35 -77 3 -78 3 0 39 0 40 95 0 95 0 0 40 0 40 -135 0 -135 0 2
-207z"/>
<path d="M12315 4889 c-3 -13 -4 -107 -3 -209 l3 -185 35 0 35 0 3 83 c3 78 4
82 26 82 19 0 30 -15 64 -85 41 -83 43 -85 78 -85 32 0 35 2 28 23 -3 12 -17
42 -29 67 -38 77 -39 85 -6 117 38 39 48 90 26 136 -26 56 -57 70 -162 75 -90
4 -92 4 -98 -19z m188 -80 c5 -9 7 -28 3 -42 -6 -25 -10 -27 -61 -27 l-55 0 0
46 0 45 51 -3 c34 -2 55 -9 62 -19z"/>
<path d="M13090 4870 c0 -33 3 -40 20 -40 19 0 20 -7 20 -130 0 -123 -1 -130
-20 -130 -17 0 -20 -7 -20 -40 l0 -40 80 0 80 0 0 40 c0 33 -3 40 -20 40 -19
0 -20 7 -20 130 0 123 1 130 20 130 17 0 20 7 20 40 l0 40 -80 0 -80 0 0 -40z"/>
<path d="M13348 4904 c-5 -4 -8 -96 -8 -205 l0 -197 41 -7 c77 -13 179 15 221
62 27 30 58 105 58 143 0 38 -31 113 -58 143 -33 36 -93 59 -171 64 -42 3 -79
2 -83 -3z m193 -113 c34 -34 39 -44 39 -85 0 -26 -7 -60 -15 -75 -16 -33 -69
-61 -114 -61 l-31 0 0 130 0 130 41 0 c35 0 48 -6 80 -39z"/>
<path d="M14158 4904 c-5 -4 -8 -96 -8 -205 l0 -197 41 -7 c77 -13 179 15 221
62 27 30 58 105 58 143 0 38 -31 113 -58 143 -33 36 -93 59 -171 64 -42 3 -79
2 -83 -3z m193 -113 c34 -34 39 -44 39 -86 0 -81 -52 -135 -129 -135 l-31 0 0
130 0 130 41 0 c35 0 48 -6 80 -39z"/>
<path d="M14546 4888 c-9 -34 -7 -371 2 -386 7 -9 40 -12 133 -10 l124 3 0 35
0 35 -92 3 -93 3 0 49 0 50 81 0 80 0 -3 38 -3 37 -77 3 -78 3 0 39 0 40 95 0
95 0 0 40 0 40 -129 0 c-125 0 -129 -1 -135 -22z"/>
<path d="M11293 4701 c-57 -109 -100 -201 -96 -205 3 -3 21 -6 39 -6 29 0 36
5 54 40 l20 40 90 0 90 0 20 -40 c18 -35 25 -40 55 -40 19 0 35 4 35 9 0 5
-27 66 -61 137 -33 71 -74 159 -91 197 -17 37 -36 67 -42 67 -6 0 -57 -90
-113 -199z m138 -9 l18 -42 -44 0 c-25 0 -45 4 -45 10 0 20 34 80 44 77 5 -2
18 -22 27 -45z"/>
<path d="M12672 4698 l3 -203 35 0 35 0 5 118 5 117 115 -115 c63 -63 118
-115 122 -115 5 0 8 90 8 200 l0 200 -35 0 -35 0 0 -117 0 -118 -118 118 c-64
64 -123 117 -130 117 -10 0 -12 -45 -10 -202z"/>
<path d="M13783 4701 c-56 -109 -99 -201 -96 -205 4 -3 21 -6 39 -6 29 0 36 5
54 40 l20 40 90 0 90 0 20 -40 c18 -35 25 -40 55 -40 19 0 35 4 35 10 0 20
-184 400 -194 400 -6 0 -57 -90 -113 -199z m141 -13 l15 -38 -45 0 c-50 0 -54
9 -23 59 22 37 30 34 53 -21z"/>
<path d="M8540 4710 l0 -70 820 0 821 0 -3 68 -3 67 -817 3 -818 2 0 -70z"/>
<path d="M15140 4710 l0 -70 820 0 820 0 0 70 0 70 -820 0 -820 0 0 -70z"/>
</g>
</svg>
