<svg width="51" height="39" viewBox="0 0 51 39" fill="none" xmlns="http://www.w3.org/2000/svg">
<path d="M16.5964 38.3269H1L24.1661 15.4218L47.4628 38.3269H31.8664L24.1661 30.8876L16.5964 38.3269Z" fill="#1F4380" stroke="#1F4380" stroke-width="0.174631"/>
<path d="M24.4924 3.93655V1.84834L40.3498 1L50.5951 2.82719L50.3993 4.9154L40.3498 3.08822L24.4924 3.93655Z" fill="#1F4380" stroke="#1F4380" stroke-width="0.174631"/>
<path d="M24.4924 8.76557V6.87313L39.8277 5.76376L50.4646 7.78672V9.80968L39.8277 8.04775L24.4924 8.76557Z" fill="#1F4380"/>
<path d="M27.0374 13.7251L25.145 11.7021L40.2193 10.8538L50.4646 12.6157V14.7039L40.2193 12.942L27.0374 13.7251Z" fill="#1F4380"/>
<path d="M31.6054 18.3583L29.7782 16.4006L40.5456 15.8133L50.4646 17.6405V19.7287L40.5456 17.8363L31.6054 18.3583Z" fill="#1F4380"/>
<path d="M36.4344 22.9915L34.6072 21.0338L41.1329 20.7728L50.4646 22.5347V24.5577L41.1329 22.7958L36.4344 22.9915Z" fill="#1F4380"/>
<path d="M41.4592 27.951L39.1099 25.5366L50.4646 27.2332V29.5172L41.4592 27.951Z" fill="#1F4380"/>
<path d="M50.4646 37.087L44.722 31.2791L50.4646 32.4538V37.087Z" fill="#1F4380"/>
<path d="M24.4924 8.76557V6.87313L39.8277 5.76376L50.4646 7.78672V9.80968L39.8277 8.04775L24.4924 8.76557Z" stroke="#1F4380" stroke-width="0.174631"/>
<path d="M27.0374 13.7251L25.145 11.7021L40.2193 10.8538L50.4646 12.6157V14.7039L40.2193 12.942L27.0374 13.7251Z" stroke="#1F4380" stroke-width="0.174631"/>
<path d="M31.6054 18.3583L29.7782 16.4006L40.5456 15.8133L50.4646 17.6405V19.7287L40.5456 17.8363L31.6054 18.3583Z" stroke="#1F4380" stroke-width="0.174631"/>
<path d="M36.4344 22.9915L34.6072 21.0338L41.1329 20.7728L50.4646 22.5347V24.5577L41.1329 22.7958L36.4344 22.9915Z" stroke="#1F4380" stroke-width="0.174631"/>
<path d="M41.4592 27.951L39.1099 25.5366L50.4646 27.2332V29.5172L41.4592 27.951Z" stroke="#1F4380" stroke-width="0.174631"/>
<path d="M50.4646 37.087L44.722 31.2791L50.4646 32.4538V37.087Z" stroke="#1F4380" stroke-width="0.174631"/>
</svg>
